<svg xmlns="http://www.w3.org/2000/svg" width="900" height="420" viewBox="0 0 900 420">
  <rect width="100%" height="100%" fill="#ffffff"/>
  <text x="160" y="24" font-family="Helvetica, Arial, sans-serif" font-size="16" fill="#111">Tiktoken-Swift Benchmark (tokens/sec)</text>
  <text x="160" y="40" font-family="Helvetica, Arial, sans-serif" font-size="12" fill="#555">Input size: 188 bytes, 50 iterations</text>
  <rect x="160" y="60" width="156.37" height="37" fill="#4C78A8"/>
  <text x="150" y="85.90" font-family="Helvetica, Arial, sans-serif" font-size="12" fill="#111" text-anchor="end">cl100k_base</text>
  <text x="322.37" y="85.90" font-family="Helvetica, Arial, sans-serif" font-size="12" fill="#111">65390</text>
  <rect x="160" y="107" width="581.77" height="37" fill="#F58518"/>
  <text x="150" y="132.90" font-family="Helvetica, Arial, sans-serif" font-size="12" fill="#111" text-anchor="end">gpt2</text>
  <text x="747.77" y="132.90" font-family="Helvetica, Arial, sans-serif" font-size="12" fill="#111">243276</text>
  <rect x="160" y="154" width="394.41" height="37" fill="#54A24B"/>
  <text x="150" y="179.90" font-family="Helvetica, Arial, sans-serif" font-size="12" fill="#111" text-anchor="end">o200k_base</text>
  <text x="560.41" y="179.90" font-family="Helvetica, Arial, sans-serif" font-size="12" fill="#111">164928</text>
  <rect x="160" y="201" width="45.86" height="37" fill="#E45756"/>
  <text x="150" y="226.90" font-family="Helvetica, Arial, sans-serif" font-size="12" fill="#111" text-anchor="end">o200k_harmony</text>
  <text x="211.86" y="226.90" font-family="Helvetica, Arial, sans-serif" font-size="12" fill="#111">19177</text>
  <rect x="160" y="248" width="599.32" height="37" fill="#72B7B2"/>
  <text x="150" y="273.90" font-family="Helvetica, Arial, sans-serif" font-size="12" fill="#111" text-anchor="end">p50k_base</text>
  <text x="765.32" y="273.90" font-family="Helvetica, Arial, sans-serif" font-size="12" fill="#111">250616</text>
  <rect x="160" y="295" width="604.28" height="37" fill="#B279A2"/>
  <text x="150" y="320.90" font-family="Helvetica, Arial, sans-serif" font-size="12" fill="#111" text-anchor="end">p50k_edit</text>
  <text x="770.28" y="320.90" font-family="Helvetica, Arial, sans-serif" font-size="12" fill="#111">252688</text>
  <rect x="160" y="342" width="620.00" height="37" fill="#FF9DA6"/>
  <text x="150" y="367.90" font-family="Helvetica, Arial, sans-serif" font-size="12" fill="#111" text-anchor="end">r50k_base</text>
  <text x="786.00" y="367.90" font-family="Helvetica, Arial, sans-serif" font-size="12" fill="#111">259263</text>
  <line x1="160" y1="380" x2="860" y2="380" stroke="#999" stroke-width="1"/>
</svg>
